<svg id="visual" viewBox="0 0 960 540" width="960" height="540" xmlns="http://www.w3.org/2000/svg" xmlns:xlink="http://www.w3.org/1999/xlink" version="1.1"><rect x="0" y="0" width="960" height="540" fill="#F3EF52"></rect><path d="M690 540L631 540L631 491L696 491L696 442L595 442L595 393L594 393L594 344L676 344L676 295L724 295L724 245L591 245L591 196L657 196L657 147L602 147L602 98L608 98L608 49L617 49L617 0L960 0L960 49L960 49L960 98L960 98L960 147L960 147L960 196L960 196L960 245L960 245L960 295L960 295L960 344L960 344L960 393L960 393L960 442L960 442L960 491L960 491L960 540L960 540Z" fill="#b99644"></path><path d="M756 540L751 540L751 491L780 491L780 442L664 442L664 393L775 393L775 344L666 344L666 295L771 295L771 245L750 245L750 196L697 196L697 147L702 147L702 98L754 98L754 49L654 49L654 0L960 0L960 49L960 49L960 98L960 98L960 147L960 147L960 196L960 196L960 245L960 245L960 295L960 295L960 344L960 344L960 393L960 393L960 442L960 442L960 491L960 491L960 540L960 540Z" fill="#79b56f"></path><path d="M735 540L809 540L809 491L822 491L822 442L806 442L806 393L848 393L848 344L799 344L799 295L814 295L814 245L774 245L774 196L771 196L771 147L813 147L813 98L796 98L796 49L836 49L836 0L960 0L960 49L960 49L960 98L960 98L960 147L960 147L960 196L960 196L960 245L960 245L960 295L960 295L960 344L960 344L960 393L960 393L960 442L960 442L960 491L960 491L960 540L960 540Z" fill="#22c6bf"></path><path d="M871 540L849 540L849 491L901 491L901 442L842 442L842 393L912 393L912 344L850 344L850 295L842 295L842 245L886 245L886 196L844 196L844 147L824 147L824 98L867 98L867 49L852 49L852 0L960 0L960 49L960 49L960 98L960 98L960 147L960 147L960 196L960 196L960 245L960 245L960 295L960 295L960 344L960 344L960 393L960 393L960 442L960 442L960 491L960 491L960 540L960 540Z" fill="#5ac9fb"></path></svg>