<svg id="visual" viewBox="0 0 900 600" width="900" height="600" xmlns="http://www.w3.org/2000/svg" xmlns:xlink="http://www.w3.org/1999/xlink" version="1.1"><rect x="0" y="0" width="900" height="600" fill="#69306d"></rect><path d="M0 273L90 188L180 145L270 102L360 207L450 121L540 194L630 231L720 203L810 231L900 135L900 601L810 601L720 601L630 601L540 601L450 601L360 601L270 601L180 601L90 601L0 601Z" fill="#0e103d"></path><path d="M0 167L90 142L180 201L270 287L360 276L450 154L540 178L630 214L720 230L810 289L900 196L900 601L810 601L720 601L630 601L540 601L450 601L360 601L270 601L180 601L90 601L0 601Z" fill="#1f1644"></path><path d="M0 244L90 205L180 229L270 156L360 245L450 178L540 187L630 322L720 279L810 182L900 292L900 601L810 601L720 601L630 601L540 601L450 601L360 601L270 601L180 601L90 601L0 601Z" fill="#2d1d4c"></path><path d="M0 244L90 323L180 237L270 346L360 254L450 306L540 244L630 224L720 281L810 340L900 261L900 601L810 601L720 601L630 601L540 601L450 601L360 601L270 601L180 601L90 601L0 601Z" fill="#3b2453"></path><path d="M0 247L90 310L180 236L270 247L360 363L450 272L540 323L630 384L720 251L810 239L900 270L900 601L810 601L720 601L630 601L540 601L450 601L360 601L270 601L180 601L90 601L0 601Z" fill="#482b5a"></path><path d="M0 372L90 400L180 357L270 336L360 378L450 360L540 312L630 388L720 407L810 364L900 278L900 601L810 601L720 601L630 601L540 601L450 601L360 601L270 601L180 601L90 601L0 601Z" fill="#553261"></path><path d="M0 373L90 338L180 416L270 323L360 353L450 397L540 414L630 386L720 367L810 404L900 379L900 601L810 601L720 601L630 601L540 601L450 601L360 601L270 601L180 601L90 601L0 601Z" fill="#633a69"></path><path d="M0 434L90 364L180 434L270 469L360 459L450 448L540 404L630 401L720 447L810 411L900 444L900 601L810 601L720 601L630 601L540 601L450 601L360 601L270 601L180 601L90 601L0 601Z" fill="#704270"></path><path d="M0 415L90 409L180 484L270 428L360 491L450 472L540 427L630 456L720 462L810 463L900 453L900 601L810 601L720 601L630 601L540 601L450 601L360 601L270 601L180 601L90 601L0 601Z" fill="#7d4b76"></path><path d="M0 472L90 465L180 483L270 492L360 484L450 488L540 469L630 515L720 465L810 501L900 463L900 601L810 601L720 601L630 601L540 601L450 601L360 601L270 601L180 601L90 601L0 601Z" fill="#8b547d"></path><path d="M0 502L90 499L180 538L270 545L360 536L450 486L540 515L630 505L720 523L810 532L900 523L900 601L810 601L720 601L630 601L540 601L450 601L360 601L270 601L180 601L90 601L0 601Z" fill="#985d84"></path><path d="M0 547L90 539L180 536L270 527L360 538L450 558L540 557L630 562L720 572L810 547L900 562L900 601L810 601L720 601L630 601L540 601L450 601L360 601L270 601L180 601L90 601L0 601Z" fill="#a5668b"></path></svg>