<svg id="visual" viewBox="0 0 960 540" width="960" height="540" xmlns="http://www.w3.org/2000/svg" xmlns:xlink="http://www.w3.org/1999/xlink" version="1.1"><g><g transform="translate(805 422)"><path d="M31.4 -42.3C40.9 -29.5 48.9 -19.7 52.2 -8.1C55.6 3.5 54.3 17.1 48.3 28.4C42.4 39.7 31.7 48.8 19.4 53.2C7.2 57.6 -6.8 57.2 -21.4 54C-36.1 50.8 -51.4 44.7 -56.1 33.8C-60.7 22.9 -54.6 7.2 -49.9 -7C-45.3 -21.1 -42.1 -33.7 -34 -46.8C-25.9 -59.9 -13 -73.6 -1 -72.4C11 -71.2 21.9 -55.2 31.4 -42.3Z" fill="none" stroke="#0e103d" stroke-width="20"></path></g><g transform="translate(709 162)"><path d="M29.6 -30.7C39.5 -27 49.5 -18.7 50.8 -9.2C52.2 0.3 44.9 11 38.2 21.4C31.4 31.9 25.2 42 16.6 44.8C8 47.5 -3 42.9 -14.8 39.2C-26.6 35.5 -39.2 32.7 -43.3 25.2C-47.5 17.7 -43.1 5.4 -41.1 -7.4C-39 -20.3 -39.4 -33.8 -32.9 -38.2C-26.5 -42.5 -13.2 -37.7 -1.7 -35.7C9.8 -33.7 19.7 -34.5 29.6 -30.7Z" fill="none" stroke="#0e103d" stroke-width="20"></path></g><g transform="translate(569 503)"><path d="M20.3 -26.5C24.1 -21 23.3 -12.5 23.1 -5.3C22.8 1.8 23.1 7.6 22.1 16.1C21.2 24.5 19.1 35.5 12.4 40.8C5.8 46 -5.3 45.5 -15.3 41.9C-25.4 38.3 -34.5 31.7 -37.2 23.3C-39.9 14.8 -36.3 4.5 -31.8 -2.9C-27.3 -10.4 -21.9 -15.1 -16.5 -20.2C-11 -25.3 -5.5 -30.9 1.4 -32.5C8.3 -34.2 16.5 -31.9 20.3 -26.5Z" stroke="#0e103d" fill="none" stroke-width="20"></path></g><g transform="translate(822 3)"><path d="M14.4 -16.4C20.1 -12.4 27.2 -9.2 30 -3.8C32.8 1.7 31.3 9.4 26.9 14.1C22.5 18.8 15.3 20.4 8.7 22C2.2 23.5 -3.7 25 -11.1 24.7C-18.4 24.5 -27.2 22.6 -28.9 17.7C-30.6 12.7 -25.3 4.6 -23.7 -4.1C-22.1 -12.8 -24.3 -22.2 -20.9 -26.6C-17.6 -31.1 -8.8 -30.7 -2.2 -28C4.4 -25.3 8.7 -20.5 14.4 -16.4Z" stroke="#0e103d" fill="none" stroke-width="20"></path></g><g transform="translate(274 56)"><path d="M22 -28.1C28 -21.2 32 -13.8 33.5 -5.8C35.1 2.2 34.3 10.8 31.4 20.4C28.5 30 23.6 40.7 16.2 42.4C8.9 44.1 -0.9 36.8 -11 32.2C-21 27.7 -31.3 25.8 -33.5 20.2C-35.7 14.6 -29.8 5.2 -28.5 -5.5C-27.2 -16.2 -30.4 -28.1 -26.4 -35.4C-22.4 -42.7 -11.2 -45.2 -1.6 -43.3C8 -41.4 16 -35 22 -28.1Z" stroke="#0e103d" fill="none" stroke-width="20"></path></g><g transform="translate(220 272)"><path d="M23.2 -27.3C30.8 -21.2 38.4 -14.6 39.8 -7C41.2 0.6 36.3 9.4 31.6 19C27 28.6 22.5 39.1 15.1 42C7.7 44.9 -2.6 40.3 -13.6 36.6C-24.5 32.9 -36 30.2 -40.6 23C-45.2 15.9 -43 4.4 -42.2 -8.8C-41.5 -21.9 -42.2 -36.5 -35.4 -42.8C-28.6 -49.1 -14.3 -46.9 -3.3 -43C7.7 -39.1 15.5 -33.4 23.2 -27.3Z" stroke="#0e103d" fill="none" stroke-width="20"></path></g><g transform="translate(56 386)"><path d="M9.7 -11.3C12.1 -9.6 13.2 -6.1 15.5 -1.5C17.7 3 21 8.5 20.1 13C19.2 17.5 14 20.9 8.5 22.5C3 24.2 -2.8 24 -7 21.5C-11.1 19 -13.5 14.1 -15 9.6C-16.4 5.1 -16.8 1 -16.2 -2.9C-15.5 -6.8 -13.8 -10.6 -10.9 -12.3C-8.1 -14 -4 -13.6 -0.2 -13.3C3.7 -13.1 7.3 -13.1 9.7 -11.3Z" stroke="#0e103d" fill="none" stroke-width="20"></path></g><g transform="translate(452 139)"><path d="M9.9 -11.2C13.2 -8.9 16.6 -6.2 17.2 -3C17.8 0.2 15.5 3.9 14 9.6C12.5 15.2 11.8 22.7 7.7 26.6C3.5 30.6 -3.9 30.9 -10.1 28.4C-16.4 25.9 -21.4 20.6 -23.3 14.7C-25.3 8.8 -24.2 2.4 -23.5 -4.6C-22.8 -11.6 -22.6 -19.1 -18.7 -21.3C-14.9 -23.5 -7.4 -20.4 -2.1 -17.9C3.3 -15.4 6.5 -13.5 9.9 -11.2Z" stroke="#0e103d" fill="none" stroke-width="20"></path></g><g transform="translate(434 357)"><path d="M8.4 -11.5C10.4 -8.4 11.1 -5.2 12.4 -1.6C13.8 2 15.7 6.1 15 9.9C14.3 13.7 10.9 17.3 7.1 17.9C3.4 18.5 -0.8 16.2 -6.1 15C-11.3 13.8 -17.7 13.8 -19.8 11C-21.9 8.2 -19.8 2.5 -18.1 -2.5C-16.4 -7.6 -15.1 -12 -12.2 -14.9C-9.2 -17.8 -4.6 -19.2 -0.7 -18.4C3.2 -17.6 6.4 -14.5 8.4 -11.5Z" stroke="#0e103d" fill="none" stroke-width="20"></path></g><g transform="translate(52 70)"><path d="M16.6 -19.8C22.2 -15.1 27.8 -10.5 27.8 -5.6C27.8 -0.8 22.1 4.3 17.8 8.9C13.5 13.4 10.6 17.4 6.2 20.5C1.7 23.7 -4.3 26.1 -10.8 25.6C-17.3 25 -24.2 21.5 -27.9 15.8C-31.6 10.1 -32 2.2 -29.4 -4C-26.9 -10.1 -21.4 -14.6 -16 -19.4C-10.6 -24.2 -5.3 -29.3 0.1 -29.4C5.5 -29.5 11 -24.6 16.6 -19.8Z" stroke="#0e103d" fill="none" stroke-width="20"></path></g><g transform="translate(954 249)"><path d="M43.1 -48.7C55.7 -40.8 65.7 -27.1 67.2 -12.7C68.7 1.6 61.7 16.6 53.3 30.3C44.8 43.9 34.8 56.1 22.2 60.4C9.6 64.7 -5.6 61.1 -21.1 56.2C-36.5 51.3 -52.1 45.2 -54.7 34.6C-57.3 23.9 -46.9 8.7 -41.2 -4.4C-35.4 -17.6 -34.4 -28.7 -28.4 -37.8C-22.3 -46.9 -11.1 -54 2.1 -56.4C15.2 -58.8 30.5 -56.7 43.1 -48.7Z" stroke="#0e103d" fill="none" stroke-width="20"></path></g><g transform="translate(321 537)"><path d="M27.1 -26.8C39.4 -21.9 56.6 -17.5 58 -10.2C59.3 -2.9 44.8 7.3 36.8 21.4C28.8 35.5 27.4 53.5 19.1 59.6C10.8 65.8 -4.5 60.1 -16.8 52.7C-29 45.4 -38.2 36.4 -41 26.2C-43.8 16.1 -40.1 4.8 -36.9 -5.3C-33.7 -15.5 -31 -24.6 -24.9 -30.6C-18.8 -36.6 -9.4 -39.5 -1 -38.3C7.4 -37.1 14.8 -31.8 27.1 -26.8Z" stroke="#0e103d" fill="none" stroke-width="20"></path></g></g></svg>